<?xml version="1.0" encoding="utf-8"?>
<!-- Generator: Adobe Illustrator 25.3.1, SVG Export Plug-In . SVG Version: 6.00 Build 0)  -->
<svg version="1.1" xmlns="http://www.w3.org/2000/svg" xmlns:xlink="http://www.w3.org/1999/xlink" x="0px" y="0px"
	 viewBox="0 0 448 448" style="enable-background:new 0 0 448 448;" xml:space="preserve">
<style type="text/css">
	.st0{fill:#222326;}
</style>
<g id="Camada_2">
</g>
<g id="Camada_1">
	<path class="st0" d="M448,0v448H0V0H448z M276.9,16h-1.1c-28.8,0-51.9,8.5-69.2,25.6c-17.2,16.9-25.8,40.6-26,71.2l0,0.9v54.5
		h-63.8v74h63.8V432H257V242.2h63.5l9.8-74H257V121c0-12,2.5-21,7.5-27c4.9-5.9,14.4-8.9,28.3-9l0.7,0h39.2V19
		c-13.1-1.9-31.3-2.9-54.8-3L276.9,16L276.9,16z"/>
</g>
</svg>
