<?xml version="1.0" encoding="utf-8"?>
<!-- Generator: Adobe Illustrator 25.3.1, SVG Export Plug-In . SVG Version: 6.00 Build 0)  -->
<svg version="1.1" xmlns="http://www.w3.org/2000/svg" xmlns:xlink="http://www.w3.org/1999/xlink" x="0px" y="0px"
	 viewBox="0 0 448 448" style="enable-background:new 0 0 448 448;" xml:space="preserve">
<style type="text/css">
	.st0{fill:#222326;}
</style>
<g id="Camada_2">
</g>
<g id="Camada_1">
	<path class="st0" d="M0,230.1v-0.8c0,56,0.3,63.9,1.3,87c3.7,81.3,48.9,126.6,130.3,130.3c23.9,1.1,31.5,1.3,92.4,1.3H0V230.1z
		 M229.2,40.4c55,0,62.4,0.3,85.3,1.3c60.7,2.8,89.1,31.6,91.8,91.8c1,22.9,1.3,30.3,1.3,85.3v10.5c0,55-0.3,62.4-1.3,85.3
		c-2.8,60.2-31.1,89.1-91.8,91.8c-23.2,1.1-30.4,1.3-87,1.3h-7.1c-56.6,0-63.8-0.2-87-1.3c-60.9-2.8-89.1-31.7-91.8-91.8
		c-1-22.9-1.3-30.2-1.3-85.3v-8.8c0-56.6,0.3-63.8,1.3-87c2.8-60.2,31.1-89.1,91.8-91.8c22.9-1,30.3-1.3,85.3-1.3L229.2,40.4
		L229.2,40.4z M224,109c-63.5,0-115,51.5-115,115s51.5,115,115,115s115-51.5,115-115C339,160.5,287.5,109,224,109L224,109z
		 M224,149.3c41.2,0,74.7,33.4,74.7,74.7c0,41.3-33.4,74.7-74.7,74.7s-74.7-33.4-74.7-74.7C149.3,182.8,182.8,149.3,224,149.3z
		 M343.6,77.6c-14.9,0-26.9,12-26.9,26.9s12,26.9,26.9,26.9c14.8,0,26.9-12,26.9-26.9S358.4,77.6,343.6,77.6z M448,224v224H224
		c60.8,0,68.5-0.3,92.4-1.3c81.3-3.7,126.6-48.9,130.3-130.3C447.7,292.5,448,284.8,448,224z M446.7,131.7
		C443,50.4,397.8,5.1,316.4,1.4c-23.2-1.1-31.1-1.3-87-1.4H448v224C448,163.2,447.7,155.6,446.7,131.7z M0,0h218.7
		c-56,0-63.8,0.3-87,1.3C50.3,5.1,5.1,50.2,1.4,131.6c-1.1,23.1-1.3,31-1.4,86.2V0z"/>
</g>
</svg>
