<?xml version="1.0" encoding="utf-8"?>
<!-- Generator: Adobe Illustrator 25.3.1, SVG Export Plug-In . SVG Version: 6.00 Build 0)  -->
<svg version="1.1" id="Camada_1" xmlns="http://www.w3.org/2000/svg" xmlns:xlink="http://www.w3.org/1999/xlink" x="0px" y="0px"
	 viewBox="0 0 63 20" style="enable-background:new 0 0 63 20;" xml:space="preserve">
<style type="text/css">
	.st0{fill-rule:evenodd;clip-rule:evenodd;fill:#FFFFFF;}
</style>
<g>
	<path class="st0" d="M61.8,9.5c-0.6,0-1-0.5-1-1c0,0,0,0,0,0c0-0.6,0.5-1,1-1c0.6,0,1,0.5,1,1c0,0,0,0,0,0
		C62.9,9,62.4,9.5,61.8,9.5 M61.8,7.6c-0.5,0-0.9,0.4-0.9,0.9c0,0,0,0,0,0c0,0.5,0.4,0.9,0.9,0.9c0.5,0,0.9-0.4,0.9-0.9c0,0,0,0,0,0
		C62.8,8,62.4,7.6,61.8,7.6C61.9,7.6,61.9,7.6,61.8,7.6 M62.1,8.6L62.4,9h-0.2l-0.3-0.4h-0.2V9h-0.2V7.9h0.5c0.2,0,0.4,0.1,0.4,0.3
		C62.3,8.4,62.2,8.5,62.1,8.6 M61.9,8.1h-0.3v0.3h0.3c0.1,0,0.2-0.1,0.2-0.2C62.1,8.2,62,8.1,61.9,8.1 M49.1,4.6c-0.6,0-1,0.5-1,1
		c0,0.6,0.5,1,1,1l0,0c0.6,0,1-0.5,1-1S49.7,4.6,49.1,4.6L49.1,4.6 M49.8,7.5h-1.5c-0.1,0-0.1,0-0.1,0.1v6.3c0,0.1,0,0.1,0.1,0.1
		h1.5c0.1,0,0.1,0,0.1-0.1V7.6C49.9,7.5,49.9,7.5,49.8,7.5 M53.1,7.5V7.3c0-0.6,0.2-0.9,0.7-0.9c0.3,0,0.5,0.1,0.8,0.2
		c0.1,0,0.1,0,0.1-0.1c0,0,0,0,0,0V5.2c0,0,0-0.1-0.1-0.1C54.3,5,53.9,5,53.5,5c-1.3,0-2.1,0.8-2.1,2.2v0.3h-0.7
		c-0.1,0-0.1,0-0.1,0.1v1.3c0,0.1,0,0.1,0.1,0.1h0.7v5c0,0.1,0,0.1,0.1,0.1H53c0.1,0,0.1,0,0.1-0.1v-5h1.4l2.1,5
		c-0.2,0.5-0.5,0.6-0.8,0.6c-0.3,0-0.5-0.1-0.8-0.2c0,0-0.1,0-0.1,0c0,0-0.1,0-0.1,0.1l-0.5,1.1c0,0.1,0,0.1,0,0.1
		c0.5,0.3,1,0.4,1.6,0.4c1.1,0,1.7-0.5,2.2-1.8l2.5-6.5c0-0.1,0-0.1-0.1-0.1c0,0,0,0,0,0H59c0,0-0.1,0-0.1,0.1L57.3,12l-1.7-4.4
		c0,0-0.1-0.1-0.1-0.1L53.1,7.5 M47.5,7.5h-1.6V5.8c0-0.1,0-0.1-0.1-0.1c0,0,0,0,0,0h-1.5c-0.1,0-0.1,0-0.1,0.1v1.6h-0.7
		c-0.1,0-0.1,0-0.1,0.1c0,0,0,0,0,0v1.3c0,0.1,0,0.1,0.1,0.1h0.7v3.2c0,1.3,0.7,2,1.9,2c0.5,0,1-0.1,1.4-0.3c0,0,0.1-0.1,0.1-0.1
		v-1.2c0-0.1,0-0.1-0.1-0.1c0,0,0,0,0,0c-0.3,0.1-0.6,0.2-0.9,0.2c-0.5,0-0.7-0.2-0.7-0.7v-3h1.6c0.1,0,0.1,0,0.1-0.1c0,0,0,0,0,0
		V7.6C47.6,7.5,47.5,7.5,47.5,7.5C47.5,7.5,47.5,7.5,47.5,7.5 M39.8,7.3c-2,0-3.5,1.5-3.5,3.4c0,1.9,1.5,3.4,3.5,3.4
		c2,0,3.5-1.5,3.5-3.4C43.3,8.8,41.8,7.3,39.8,7.3 M39.8,12.7c-1,0-1.8-0.8-1.8-1.9c0-1.1,0.8-1.9,1.8-1.9c1,0,1.8,0.8,1.8,1.9
		C41.6,11.9,40.9,12.7,39.8,12.7 M32.8,7.3c-0.8,0-1.5,0.3-2,1V7.6c0-0.1,0-0.1-0.1-0.1h-1.5c-0.1,0-0.1,0-0.1,0.1v8.3
		c0,0.1,0,0.1,0.1,0.1h1.5c0.1,0,0.1,0,0.1-0.1v-2.6c0.6,0.6,1.2,0.9,2,0.9c1.5,0,3.1-1.2,3.1-3.4S34.3,7.3,32.8,7.3 M34.2,10.7
		c0,1.1-0.7,1.9-1.7,1.9c-1,0-1.7-0.8-1.7-1.9s0.8-1.9,1.7-1.9C33.4,8.8,34.2,9.6,34.2,10.7 M25.7,8.9c-1.6-0.4-1.9-0.7-1.9-1.2
		c0-0.5,0.5-0.9,1.3-0.9c0.7,0,1.5,0.3,2.2,0.8c0,0,0.1,0,0.1,0c0,0,0,0,0,0l0.8-1.1c0,0,0-0.1,0-0.1c-0.9-0.7-1.9-1.1-3.1-1.1
		c-1.8,0-3,1.1-3,2.6c0,1.6,1.1,2.2,2.9,2.6c1.6,0.4,1.8,0.7,1.8,1.2c0,0.6-0.5,1-1.4,1c-0.9,0-1.7-0.3-2.6-1.1c0,0,0,0-0.1,0
		c0,0-0.1,0-0.1,0l-0.9,1.1c0,0,0,0.1,0,0.1c1,0.9,2.3,1.4,3.6,1.4c1.9,0,3.1-1,3.1-2.6C28.5,10.2,27.7,9.4,25.7,8.9 M9.5,0.3
		c-5.2,0-9.4,4.2-9.4,9.4s4.2,9.4,9.4,9.4s9.4-4.2,9.4-9.4S14.7,0.3,9.5,0.3 M13.8,13.9c-0.2,0.3-0.5,0.4-0.8,0.2c0,0,0,0,0,0
		c-2.2-1.4-5-1.7-8.3-0.9C4.4,13.2,4.1,13,4,12.7C4,12.4,4.2,12.1,4.5,12l0,0c3.6-0.8,6.7-0.5,9.1,1C13.9,13.2,14,13.6,13.8,13.9
		 M15,11.3c-0.2,0.3-0.7,0.5-1,0.2c-2.5-1.6-6.4-2-9.4-1.1c-0.4,0.1-0.8-0.2-0.9-0.5C3.6,9.6,3.8,9.2,4.2,9.1
		c3.4-1,7.7-0.5,10.6,1.2C15.1,10.5,15.2,11,15,11.3C15,11.3,15,11.3,15,11.3 M15.1,8.6c-3-1.8-8-2-10.9-1.1C3.7,7.7,3.2,7.5,3,7
		s0.1-1,0.6-1.1c0,0,0,0,0,0C7,4.9,12.5,5.1,16,7.1c0.4,0.2,0.6,0.8,0.3,1.2C16,8.8,15.5,8.9,15.1,8.6"/>
</g>
</svg>
